<svg width="294" height="380" viewBox="0 0 294 380" fill="none" xmlns="http://www.w3.org/2000/svg">
<path d="M103.718 242.701C98.3725 238.698 81 217.347 81 217.347L114.409 200C114.409 200 143.808 222.685 147.817 225.354C151.826 228.023 179.889 240.032 183.898 242.701C187.907 245.37 213.298 266.721 215.971 269.389C218.643 272.058 226.661 290.74 227.998 296.078C229.334 301.415 229.334 322.766 227.998 328.103C226.661 333.441 225.739 313.425 222.652 308.087C219.566 302.75 206.616 292.074 202.607 288.071C198.598 284.068 181.226 272.058 174.544 269.389C167.862 266.721 139.799 261.383 135.79 260.049C131.781 258.714 109.063 246.704 103.718 242.701Z" fill="url(#paint0_linear_12_17)"/>
<path d="M91.4926 143.574C41.8945 174.899 70.6092 240.16 70.6092 240.16C70.6092 240.16 70.6093 219.276 116.292 201.003C161.974 182.73 205.046 180.12 227.235 168.373C249.424 156.626 271.612 140.963 285.97 112.248C300.327 83.5338 289.885 26.1043 289.885 26.1043C289.885 26.1043 269.002 67.8712 236.372 83.5338C203.741 99.1963 141.091 112.248 91.4926 143.574Z" fill="url(#paint1_linear_12_17)"/>
<path d="M40.5893 6.52607C32.758 5.22086 7.95891 0 4.04327 0C0.127621 0 23.6215 36.546 24.9267 43.0721C26.2319 49.5982 26.2319 75.7025 24.9267 87.4494C23.6215 99.1963 7.95891 150.1 7.95891 150.1C7.95891 150.1 -1.17759 187.951 0.127621 201.003C1.43284 214.055 10.5693 244.075 18.4006 255.822C26.2319 267.569 53.6414 288.452 58.8623 291.063C64.0832 293.673 118.902 311.946 118.902 311.946C118.902 311.946 158.059 321.083 164.585 324.998C171.111 328.914 182.858 338.051 186.773 347.187C190.689 356.324 197.215 382.428 198.52 379.818C199.826 377.207 208.962 361.544 210.267 356.324C211.572 351.103 208.962 326.304 206.352 319.778C203.741 313.252 194.605 301.505 186.773 296.284C178.942 291.063 168.5 285.842 164.585 284.537C160.669 283.232 135.87 278.011 131.954 276.706C128.039 275.4 94.1031 271.485 94.1031 271.485C94.1031 271.485 71.9144 268.874 65.3884 262.348C58.8623 255.822 49.7258 234.939 48.4206 232.328C47.1154 229.718 48.4206 207.529 48.4206 207.529C48.4206 207.529 49.7258 182.73 56.2519 172.288C62.7779 161.847 75.8301 137.048 78.4405 131.827C81.0509 126.606 92.7979 97.8911 94.1031 90.0598C95.4083 82.2285 96.7135 65.2607 94.1031 54.819C91.4927 44.3773 79.7457 27.4095 73.2197 22.1887C66.6936 16.9678 48.4206 7.83129 40.5893 6.52607Z" fill="url(#paint2_linear_12_17)"/>
<defs>
<linearGradient id="paint0_linear_12_17" x1="91.8396" y1="204.243" x2="141.395" y2="340.397" gradientUnits="userSpaceOnUse">
<stop stop-color="#5558E2"/>
<stop offset="1" stop-color="#5E94EB"/>
</linearGradient>
<linearGradient id="paint1_linear_12_17" x1="79.2756" y1="33.1456" x2="165.325" y2="255.734" gradientUnits="userSpaceOnUse">
<stop stop-color="#5558E2"/>
<stop offset="1" stop-color="#5E94EB"/>
</linearGradient>
<linearGradient id="paint2_linear_12_17" x1="15.4256" y1="12.5" x2="233.717" y2="302.242" gradientUnits="userSpaceOnUse">
<stop stop-color="#5558E2"/>
<stop offset="1" stop-color="#5E94EB"/>
</linearGradient>
</defs>
</svg>
